<?xml version="1.0" encoding="iso-8859-1"?>
<!-- Generator: Adobe Illustrator 19.0.0, SVG Export Plug-In . SVG Version: 6.00 Build 0)  -->
<svg xmlns="http://www.w3.org/2000/svg" xmlns:xlink="http://www.w3.org/1999/xlink" version="1.1" id="Layer_1" x="0px" y="0px" viewBox="0 0 512 512" style="enable-background:new 0 0 512 512;" xml:space="preserve" width="512px" height="512px">
<g>
	<g>
		<path d="M310.039,455.366c-3.9,0-7.798-0.08-11.692-0.242c-45.707-1.895-89.202-14.36-129.273-37.049    c-31.671-17.932-58.945-41.001-81.41-68.745c-32.397,16.057-61.362,39.042-85.001,68.057C51.769,477.66,123.799,512,202.005,512    c63.386,0,122.711-22.562,169.066-63.202C351.012,453.135,330.506,455.366,310.039,455.366z" fill="#3FE61E"/>
	</g>
</g>
<g>
	<g>
		<path d="M295.566,390.201c-38.839-24.169-70.547-56.444-94.24-95.932c-18.726-31.209-31.094-64.721-36.975-99.931    c-36.103-1.989-72.63,3.743-107.499,17.344c13.036,76.642,58.799,142.013,126.855,180.545    c55.153,31.227,117.884,40.823,178.24,28.304C338.631,413.257,316.236,403.062,295.566,390.201z" fill="#3FE61E"/>
	</g>
</g>
<g>
	<g>
		<path d="M325.138,332.333c-21.892-40.168-33.581-83.877-34.745-129.912c-0.919-36.384,4.829-71.641,17.062-105.179    c-30.438-19.518-65.048-32.528-102.093-37.87c-26.417,73.121-18.801,152.552,21.439,219.613    c32.608,54.345,82.47,93.604,141.16,112.446C351.253,373.613,336.787,353.707,325.138,332.333z" fill="#3FE61E"/>
	</g>
</g>
<g>
	<g>
		<path d="M509.253,196.891C507.279,118.708,471.13,47.569,409.636,0c-59.012,50.614-91.522,123.488-89.546,201.671    c1.8,71.276,32.014,136.689,83.932,183.734V240.646c0-8.203,6.651-14.853,14.853-14.853c8.202,0,14.853,6.65,14.853,14.853v144.95    C483.823,335.891,511.065,268.633,509.253,196.891z" fill="#3FE61E"/>
	</g>
</g>
<g>
</g>
<g>
</g>
<g>
</g>
<g>
</g>
<g>
</g>
<g>
</g>
<g>
</g>
<g>
</g>
<g>
</g>
<g>
</g>
<g>
</g>
<g>
</g>
<g>
</g>
<g>
</g>
<g>
</g>
</svg>
