<svg xmlns="http://www.w3.org/2000/svg" style="display: none;"><symbol id="dropbox" viewBox="0 0 290.242 290.242"><title>dropbox</title><path id="XMLID_242_" d="M83.323,226.321c-1.683,0-3.271-0.376-4.587-1.089L58.594,214.34c-0.304-0.165-0.508-0.214-0.615-0.229 c-0.039,0.104-0.093,0.307-0.093,0.65v6.26c0,1.886,1.463,4.504,3.068,5.492l78.056,48.066v-90.879l-49.237,40.467 C88.109,225.537,85.758,226.321,83.323,226.321z" fill="#3FE61E"/><path id="XMLID_243_" d="M84.639,212.82L84.639,212.82c1.166,0,2.328-0.381,3.034-0.993l42.457-36.847 c0.38-0.33,0.584-0.686,0.56-0.977c-0.025-0.293-0.286-0.609-0.716-0.871l-75.822-46.031c-0.577-0.351-1.36-0.544-2.205-0.544 c-1.152,0-2.262,0.356-2.966,0.954l-44.2,37.518c-0.368,0.313-0.575,0.652-0.553,0.908c0.023,0.256,0.284,0.555,0.701,0.8 l77.563,45.567C83.057,212.637,83.819,212.82,84.639,212.82z" fill="#3FE61E"/><path id="XMLID_244_" d="M52.461,109.155c0.876,0,1.686-0.2,2.279-0.563l81.2-49.633c0.415-0.254,0.674-0.563,0.693-0.828 c0.019-0.266-0.193-0.608-0.567-0.92L87.175,16.59c-0.699-0.58-1.796-0.928-2.935-0.928c-0.865,0-1.667,0.201-2.255,0.565 L0.689,66.42c-0.413,0.254-0.67,0.563-0.688,0.824c-0.018,0.262,0.196,0.602,0.572,0.909l48.922,40.077 C50.202,108.809,51.312,109.155,52.461,109.155z" fill="#3FE61E"/><path id="XMLID_245_" d="M289.554,66.43l-81.283-50.184c-0.589-0.363-1.391-0.563-2.257-0.563c-1.137,0-2.233,0.347-2.934,0.927 l-48.889,40.604c-0.375,0.311-0.587,0.654-0.567,0.918c0.02,0.265,0.278,0.574,0.693,0.828l81.199,49.633 c0.595,0.363,1.404,0.563,2.28,0.563c1.149,0,2.258-0.347,2.965-0.925l48.908-40.068c0.375-0.307,0.589-0.646,0.571-0.908 C290.224,66.992,289.967,66.684,289.554,66.43z" fill="#3FE61E"/><path id="XMLID_307_" d="M285.477,165.031l-44.211-37.52c-0.704-0.598-1.812-0.954-2.965-0.954c-0.845,0-1.629,0.193-2.207,0.544 l-75.816,46.031c-0.43,0.262-0.69,0.578-0.715,0.869c-0.025,0.291,0.179,0.647,0.559,0.976l42.48,36.85 c0.706,0.611,1.868,0.992,3.034,0.992c0.819,0,1.583-0.184,2.149-0.516l77.543-45.566c0.417-0.246,0.679-0.545,0.7-0.8 C286.052,165.683,285.845,165.344,285.477,165.031z" fill="#3FE61E"/><path id="XMLID_308_" d="M231.649,214.34l-20.123,10.891c-1.317,0.713-2.904,1.09-4.588,1.09c-2.435,0-4.785-0.783-6.449-2.151 l-49.242-40.468v90.357c0,0.192,0.017,0.344,0.038,0.456c0.103-0.039,0.239-0.103,0.407-0.207l77.596-47.793 c1.606-0.989,3.069-3.607,3.069-5.493v-6.26c0-0.342-0.053-0.544-0.092-0.647C232.147,214.129,231.945,214.181,231.649,214.34z" fill="#3FE61E"/></symbol><symbol id="telegram" viewBox="0 0 300 300"><title>telegram</title><path id="XMLID_497_" d="M5.299,144.645l69.126,25.8l26.756,86.047c1.712,5.511,8.451,7.548,12.924,3.891l38.532-31.412 c4.039-3.291,9.792-3.455,14.013-0.391l69.498,50.457c4.785,3.478,11.564,0.856,12.764-4.926L299.823,29.22 c1.31-6.316-4.896-11.585-10.91-9.259L5.218,129.402C-1.783,132.102-1.722,142.014,5.299,144.645z M96.869,156.711l135.098-83.207 c2.428-1.491,4.926,1.792,2.841,3.726L123.313,180.87c-3.919,3.648-6.447,8.53-7.163,13.829l-3.798,28.146 c-0.503,3.758-5.782,4.131-6.819,0.494l-14.607-51.325C89.253,166.16,91.691,159.907,96.869,156.711z" fill="#3FE61E"/></symbol><symbol id="leaves" viewBox="0 0 512 512"><title>leaves</title><g> <g> <path d="M310.039,455.366c-3.9,0-7.798-0.08-11.692-0.242c-45.707-1.895-89.202-14.36-129.273-37.049 c-31.671-17.932-58.945-41.001-81.41-68.745c-32.397,16.057-61.362,39.042-85.001,68.057C51.769,477.66,123.799,512,202.005,512 c63.386,0,122.711-22.562,169.066-63.202C351.012,453.135,330.506,455.366,310.039,455.366z" fill="#3FE61E"/> </g> </g><g> <g> <path d="M295.566,390.201c-38.839-24.169-70.547-56.444-94.24-95.932c-18.726-31.209-31.094-64.721-36.975-99.931 c-36.103-1.989-72.63,3.743-107.499,17.344c13.036,76.642,58.799,142.013,126.855,180.545 c55.153,31.227,117.884,40.823,178.24,28.304C338.631,413.257,316.236,403.062,295.566,390.201z" fill="#3FE61E"/> </g> </g><g> <g> <path d="M325.138,332.333c-21.892-40.168-33.581-83.877-34.745-129.912c-0.919-36.384,4.829-71.641,17.062-105.179 c-30.438-19.518-65.048-32.528-102.093-37.87c-26.417,73.121-18.801,152.552,21.439,219.613 c32.608,54.345,82.47,93.604,141.16,112.446C351.253,373.613,336.787,353.707,325.138,332.333z" fill="#3FE61E"/> </g> </g><g> <g> <path d="M509.253,196.891C507.279,118.708,471.13,47.569,409.636,0c-59.012,50.614-91.522,123.488-89.546,201.671 c1.8,71.276,32.014,136.689,83.932,183.734V240.646c0-8.203,6.651-14.853,14.853-14.853c8.202,0,14.853,6.65,14.853,14.853v144.95 C483.823,335.891,511.065,268.633,509.253,196.891z" fill="#3FE61E"/> </g> </g></symbol></svg>